HIERARCHY
ROOT RootJoint
{
    OFFSET   0.000000   0.000000   0.000000
    CHANNELS 6 Xposition Yposition Zposition Xrotation Yrotation Zrotation
    JOINT pelvis_lowerback
    {
        OFFSET   0.000000   0.093605   0.000000
        CHANNELS 3 Xrotation Yrotation Zrotation
        JOINT lowerback_torso
        {
            OFFSET   0.000000   0.100000   0.000000
            CHANNELS 3 Xrotation Yrotation Zrotation
            JOINT torso_head
            {
                OFFSET   0.000000   0.282350   0.000000
                CHANNELS 3 Xrotation Yrotation Zrotation
                End Site
                {
                    OFFSET   0.000000   0.192650   0.000000
                }
            }
            JOINT rTorso_Clavicle
            {
                OFFSET  -0.001000   0.157500   0.000000
                CHANNELS 3 Xrotation Yrotation Zrotation
                JOINT rShoulder
                {
                    OFFSET  -0.117647   0.000000   0.000000
                    CHANNELS 3 Xrotation Yrotation Zrotation
                    JOINT rElbow
                    {
                        OFFSET  -0.245000   0.000000   0.000000
                        CHANNELS 3 Xrotation Yrotation Zrotation
                        JOINT rWrist
                        {
                            OFFSET  -0.240000   0.000000   0.000000
                            CHANNELS 3 Xrotation Yrotation Zrotation
                            End Site
                            {
                                OFFSET  -0.116353  -0.002500   0.000000
                            }
                        }
                    }
                }
            }
            JOINT lTorso_Clavicle
            {
                OFFSET   0.001000   0.157500   0.000000
                CHANNELS 3 Xrotation Yrotation Zrotation
                JOINT lShoulder
                {
                    OFFSET   0.117647   0.000000   0.000000
                    CHANNELS 3 Xrotation Yrotation Zrotation
                    JOINT lElbow
                    {
                        OFFSET   0.245000   0.000000   0.000000
                        CHANNELS 3 Xrotation Yrotation Zrotation
                        JOINT lWrist
                        {
                            OFFSET   0.240000   0.000000   0.000000
                            CHANNELS 3 Xrotation Yrotation Zrotation
                            End Site
                            {
                                OFFSET   0.116353  -0.002500   0.000000
                            }
                        }
                    }
                }
            }
        }
    }
    JOINT rHip
    {
        OFFSET  -0.100000  -0.051395   0.000000
        CHANNELS 3 Xrotation Yrotation Zrotation
        JOINT rKnee
        {
            OFFSET   0.000000  -0.410000   0.000000
            CHANNELS 3 Xrotation Yrotation Zrotation
            JOINT rAnkle
            {
                OFFSET   0.000000  -0.390000   0.000000
                CHANNELS 3 Xrotation Yrotation Zrotation
                JOINT rToeJoint
                {
                    OFFSET   0.000000  -0.050000   0.130000
                    CHANNELS 3 Xrotation Yrotation Zrotation
                    End Site
                    {
                        OFFSET  -0.010000   0.002000   0.060000
                    }
                }
            }
        }
    }
    JOINT lHip
    {
        OFFSET   0.100000  -0.051395   0.000000
        CHANNELS 3 Xrotation Yrotation Zrotation
        JOINT lKnee
        {
            OFFSET   0.000000  -0.410000   0.000000
            CHANNELS 3 Xrotation Yrotation Zrotation
            JOINT lAnkle
            {
                OFFSET   0.000000  -0.390000   0.000000
                CHANNELS 3 Xrotation Yrotation Zrotation
                JOINT lToeJoint
                {
                    OFFSET   0.000000  -0.050000   0.130000
                    CHANNELS 3 Xrotation Yrotation Zrotation
                    End Site
                    {
                        OFFSET   0.010000   0.002000   0.060000
                    }
                }
            }
        }
    }
}
MOTION
Frames: 8
Frame Time:   0.008333
 -2.376719   0.925631   3.975860   0.000000   0.000000   0.000000   0.000000   0.000000   0.000000   0.000000   0.000000   0.000000   0.000000   0.000000   0.000000   0.000000   0.000000   0.000000   0.000000   0.000000   0.000000   0.000000   0.000000   0.000000   0.000000   0.000000   0.000000   0.000000   0.000000   0.000000   0.000000   0.000000   0.000000   0.000000   0.000000   0.000000   0.000000   0.000000   0.000000   0.000000   0.000000   0.000000   0.000000   0.000000   0.000000   0.000000   0.000000   0.000000   0.000000   0.000000   0.000000   0.000000   0.000000   0.000000   0.000000   0.000000   0.000000   0.000000   0.000000   0.000000   0.000000   0.000000   0.000000
 -2.376689   0.926104   3.974970  -2.646323   0.113711  -0.044085   3.792827  -0.142672   0.060400  -0.559071  -0.032956   0.001594  -0.373677  -0.108640  -0.044314  -0.333969  -0.117205   0.474590   0.603060   0.417230   1.642767   0.058175   3.091550  -0.024706   0.893008  -2.149479  -2.805121  -0.468215   0.009303  -0.614793   1.136924  -0.184938  -1.476546   0.047977  -2.601240   0.029666   0.813692   1.634408   2.746486   1.894869  -0.402892  -0.025941   3.140455   0.001750  -0.008030  -0.603679   0.541330   0.563600   0.270526  -0.001176   0.000574   1.757665   0.126509   0.128091   3.249723  -0.002038   0.006850  -1.058979  -0.147169   0.052704   0.619858  -0.000711   0.000496
 -2.376620   0.927073   3.973359  -5.664825   0.146263  -0.112500   7.775642  -0.250468   0.151163  -0.844361  -0.037464   0.012907  -0.679946  -0.215794  -0.088819  -0.650715   0.139698   1.603698   1.132021   1.165509   3.699542   0.136302   6.171453  -0.046826   1.782154  -3.198274  -4.974067  -0.907792  -0.305973  -1.880995   2.180537  -0.682500  -3.377700   0.112869  -5.192478   0.055265   1.644465   2.347739   4.876699   3.676902  -0.745913  -0.059588   6.232690   0.002917  -0.015306  -1.437724   1.095684   1.095365  -1.945679   0.008034  -0.003638   3.535836   0.211822   0.234158   6.725259  -0.001722   0.009105  -2.210867  -0.359828   0.031254  -1.339123  -0.000678   0.002049
 -2.376572   0.928060   3.971599  -8.819896   0.258931  -0.196131  11.742911  -0.380844   0.261444  -1.036698  -0.060236   0.037023  -0.956178  -0.317779  -0.129626  -0.965091   0.623207   3.130028   1.580434   2.083664   5.964772   0.212944   9.128350  -0.061781   2.655983  -3.631388  -6.354427  -1.339963  -0.847794  -3.528338   3.122484  -1.387916  -5.486104   0.177017  -7.692809   0.073104   2.467990   2.496290   6.239375   5.378948  -1.064389  -0.091172   9.598360   0.003814  -0.019360  -2.093162   1.628211   1.602304  -3.583271   0.013084  -0.006229   5.229029   0.315632   0.356172  10.345298  -0.000261   0.013931  -3.203249  -0.543817   0.031409  -2.034456  -0.000641   0.001480
 -2.376563   0.928709   3.970079 -11.951265   0.426293  -0.277339  15.485432  -0.508216   0.376938  -1.168728  -0.094025   0.069524  -1.211669  -0.413120  -0.167817  -1.282270   1.222347   4.888903   1.952419   3.080842   8.319338   0.277618  11.935285  -0.069116   3.515031  -3.714078  -7.124336  -1.774746  -1.506998  -5.389146   3.965402  -2.214841  -7.675892   0.231661 -10.077824   0.082852   3.285761   2.297408   7.020427   6.998125  -1.376847  -0.119322  13.000407   0.004215  -0.021356  -2.657833   2.118656   2.088016  -4.441585   0.014017  -0.006494   6.798392   0.434868   0.495127  14.040304   0.002087   0.019866  -4.077769  -0.711641   0.040689  -2.008006  -0.000510   0.001208
 -2.376607   0.928777   3.968981 -14.985256   0.635899  -0.338712  18.955838  -0.628811   0.485543  -1.296168  -0.133572   0.103854  -1.455629  -0.501956  -0.204364  -1.600206   1.855569   6.774834   2.256176   4.093555  10.690095   0.326054  14.580375  -0.070108   4.350360  -3.604309  -7.458678  -2.212708  -2.198481  -7.358090   4.716109  -3.095337  -9.872366   0.273112 -12.333334   0.085621   4.087993   1.900843   7.394714   8.559993  -1.688206  -0.152187  16.273477   0.004228  -0.021820  -3.151336   2.565226   2.548902  -4.780634   0.012605  -0.005691   8.294196   0.582631   0.674313  17.605842   0.004205   0.026460  -4.850803  -0.836207   0.067578  -1.461223  -0.000430   0.002027
 -2.376687   0.928109   3.968288 -17.893598   0.871307  -0.368157  22.162716  -0.739047   0.582457  -1.436814  -0.173421   0.133560  -1.694278  -0.584633  -0.240146  -1.913534   2.475973   8.712383   2.501309   5.083511  13.027740   0.357800  17.060787  -0.067019   5.152401  -3.402404  -7.496012  -2.648582  -2.870723  -9.366346   5.383788  -3.984472 -12.031066   0.300788 -14.453231   0.083452   4.862760   1.410323   7.491338  10.052906  -1.994754  -0.200144  19.376274   0.004062  -0.021287  -3.600561   2.972733   2.983264  -4.919977   0.010641  -0.004719   9.721988   0.742713   0.893700  20.986391   0.005758   0.032600  -5.550848  -0.933667   0.102526  -0.696571  -0.000544   0.003612
 -2.376492   0.925700   3.964341 -18.513621   0.820256  -0.300266  23.753091  -0.573975   0.493211  -2.243764  -0.073806   0.177786  -2.103154  -0.656012  -0.318633  -2.013897   2.776711  10.236911   2.947189   5.860963  15.226103   0.379062  19.612025  -0.073666   6.066483  -2.832492  -7.055243  -2.944925  -3.326520 -10.914804   6.071445  -5.045162 -14.269437   0.329948 -16.924169   0.086890   5.570643   0.884233   7.055360   8.155568  -2.494673  -0.747798  23.515254   0.007158  -0.041343  -5.665858   2.974715   3.407538  -4.463167   0.007962  -0.006381   8.169603   1.143524   1.102942  24.792213   0.004416   0.040829  -8.109970  -0.955092  -0.024096  -0.223226  -0.000492   0.004631
